<?xml version="1.0" standalone="no"?><!-- Generator: Gravit.io --><svg xmlns="http://www.w3.org/2000/svg" xmlns:xlink="http://www.w3.org/1999/xlink" style="isolation:isolate" viewBox="0 0 2315.67 359.4" width="2315.67" height="359.4"><g style="isolation:isolate"><path d=" M 118.053 206.934 L 118.053 206.934 L 118.053 206.934 Q 61.761 190.753 36.122 167.166 L 36.122 167.166 L 36.122 167.166 Q 10.483 143.578 10.483 108.937 L 10.483 108.937 L 10.483 108.937 Q 10.483 69.738 41.82 44.099 L 41.82 44.099 L 41.82 44.099 Q 73.156 18.46 123.295 18.46 L 123.295 18.46 L 123.295 18.46 Q 157.48 18.46 184.258 31.678 L 184.258 31.678 L 184.258 31.678 Q 211.037 44.897 225.736 68.142 L 225.736 68.142 L 225.736 68.142 Q 240.436 91.388 240.436 118.964 L 240.436 118.964 L 196.451 118.964 L 196.451 118.964 Q 196.451 88.882 177.307 71.675 L 177.307 71.675 L 177.307 71.675 Q 158.164 54.468 123.295 54.468 L 123.295 54.468 L 123.295 54.468 Q 90.933 54.468 72.814 68.712 L 72.814 68.712 L 72.814 68.712 Q 54.696 82.956 54.696 108.253 L 54.696 108.253 L 54.696 108.253 Q 54.696 128.536 71.903 142.552 L 71.903 142.552 L 71.903 142.552 Q 89.109 156.568 130.474 168.191 L 130.474 168.191 L 130.474 168.191 Q 171.838 179.814 195.197 193.83 L 195.197 193.83 L 195.197 193.83 Q 218.557 207.846 229.838 226.534 L 229.838 226.534 L 229.838 226.534 Q 241.12 245.222 241.12 270.519 L 241.12 270.519 L 241.12 270.519 Q 241.12 310.857 209.669 335.129 L 209.669 335.129 L 209.669 335.129 Q 178.219 359.4 125.574 359.4 L 125.574 359.4 L 125.574 359.4 Q 91.388 359.4 61.761 346.296 L 61.761 346.296 L 61.761 346.296 Q 32.134 333.192 16.067 310.402 L 16.067 310.402 L 16.067 310.402 Q 0 287.611 0 258.668 L 0 258.668 L 43.985 258.668 L 43.985 258.668 Q 43.985 288.751 66.205 306.185 L 66.205 306.185 L 66.205 306.185 Q 88.426 323.62 125.574 323.62 L 125.574 323.62 L 125.574 323.62 Q 160.215 323.62 178.675 309.49 L 178.675 309.49 L 178.675 309.49 Q 197.135 295.36 197.135 270.975 L 197.135 270.975 L 197.135 270.975 Q 197.135 246.589 180.042 233.257 L 180.042 233.257 L 180.042 233.257 Q 162.949 219.925 118.053 206.934 Z  M 305.616 48.543 L 347.777 48.543 L 347.777 108.253 L 393.813 108.253 L 393.813 140.843 L 347.777 140.843 L 347.777 293.765 L 347.777 293.765 Q 347.777 308.578 353.931 315.985 L 353.931 315.985 L 353.931 315.985 Q 360.084 323.392 374.898 323.392 L 374.898 323.392 L 374.898 323.392 Q 382.191 323.392 394.953 320.657 L 394.953 320.657 L 394.953 354.842 L 394.953 354.842 Q 378.316 359.4 362.591 359.4 L 362.591 359.4 L 362.591 359.4 Q 334.331 359.4 319.973 342.308 L 319.973 342.308 L 319.973 342.308 Q 305.616 325.215 305.616 293.765 L 305.616 293.765 L 305.616 140.843 L 260.719 140.843 L 260.719 108.253 L 305.616 108.253 L 305.616 48.543 Z  M 639.491 359.4 L 595.278 359.4 L 595.278 359.4 Q 591.632 347.55 589.353 328.862 L 589.353 328.862 L 589.353 328.862 Q 559.954 359.4 519.159 359.4 L 519.159 359.4 L 519.159 359.4 Q 482.695 359.4 459.335 338.775 L 459.335 338.775 L 459.335 338.775 Q 435.975 318.15 435.975 286.472 L 435.975 286.472 L 435.975 286.472 Q 435.975 247.957 465.261 226.648 L 465.261 226.648 L 465.261 226.648 Q 494.546 205.339 547.647 205.339 L 547.647 205.339 L 588.669 205.339 L 588.669 185.967 L 588.669 185.967 Q 588.669 163.861 575.451 150.757 L 575.451 150.757 L 575.451 150.757 Q 562.233 137.652 536.48 137.652 L 536.48 137.652 L 536.48 137.652 Q 513.917 137.652 498.648 149.047 L 498.648 149.047 L 498.648 149.047 Q 483.379 160.443 483.379 176.624 L 483.379 176.624 L 440.989 176.624 L 440.989 176.624 Q 440.989 158.164 454.093 140.957 L 454.093 140.957 L 454.093 140.957 Q 467.198 123.75 489.646 113.723 L 489.646 113.723 L 489.646 113.723 Q 512.094 103.695 538.987 103.695 L 538.987 103.695 L 538.987 103.695 Q 581.604 103.695 605.762 125.004 L 605.762 125.004 L 605.762 125.004 Q 629.919 146.313 630.831 183.688 L 630.831 183.688 L 630.831 297.183 L 630.831 297.183 Q 630.831 331.141 639.491 351.196 L 639.491 351.196 L 639.491 359.4 Z  M 525.313 322.708 L 525.313 322.708 L 525.313 322.708 Q 545.14 322.708 562.916 312.453 L 562.916 312.453 L 562.916 312.453 Q 580.693 302.197 588.669 285.788 L 588.669 285.788 L 588.669 235.194 L 555.623 235.194 L 555.623 235.194 Q 478.137 235.194 478.137 280.547 L 478.137 280.547 L 478.137 280.547 Q 478.137 300.374 491.355 311.541 L 491.355 311.541 L 491.355 311.541 Q 504.574 322.708 525.313 322.708 Z  M 759.823 359.4 L 717.661 359.4 L 717.661 140.843 L 678.69 140.843 L 678.69 108.253 L 717.661 108.253 L 717.661 82.956 L 717.661 82.956 Q 717.661 43.301 738.856 21.651 L 738.856 21.651 L 738.856 21.651 Q 760.051 0 798.794 0 L 798.794 0 L 798.794 0 Q 813.38 0 827.738 3.874 L 827.738 3.874 L 825.459 38.06 L 825.459 38.06 Q 814.747 36.008 802.668 36.008 L 802.668 36.008 L 802.668 36.008 Q 782.157 36.008 770.99 47.973 L 770.99 47.973 L 770.99 47.973 Q 759.823 59.938 759.823 82.272 L 759.823 82.272 L 759.823 108.253 L 812.468 108.253 L 812.468 140.843 L 759.823 140.843 L 759.823 359.4 Z  M 921.861 359.4 L 879.699 359.4 L 879.699 140.843 L 840.728 140.843 L 840.728 108.253 L 879.699 108.253 L 879.699 82.956 L 879.699 82.956 Q 879.699 43.301 900.894 21.651 L 900.894 21.651 L 900.894 21.651 Q 922.089 0 960.832 0 L 960.832 0 L 960.832 0 Q 975.418 0 989.775 3.874 L 989.775 3.874 L 987.496 38.06 L 987.496 38.06 Q 976.785 36.008 964.706 36.008 L 964.706 36.008 L 964.706 36.008 Q 944.195 36.008 933.028 47.973 L 933.028 47.973 L 933.028 47.973 Q 921.861 59.938 921.861 82.272 L 921.861 82.272 L 921.861 108.253 L 974.506 108.253 L 974.506 140.843 L 921.861 140.843 L 921.861 359.4 Z " fill-rule="evenodd" fill="rgb(19,19,90)"/><path d=" M 1038.227 23.018 L 1127.565 23.018 L 1212.8 263.682 L 1297.579 23.018 L 1387.372 23.018 L 1387.372 359.4 L 1318.774 359.4 L 1318.774 264.138 L 1325.611 107.569 L 1236.046 354.842 L 1189.098 354.842 L 1099.761 107.797 L 1106.598 264.138 L 1106.598 359.4 L 1038.227 359.4 L 1038.227 23.018 Z  M 1556.247 359.4 L 1556.247 359.4 L 1556.247 359.4 Q 1502.006 359.4 1467.935 326.127 L 1467.935 326.127 L 1467.935 326.127 Q 1433.864 292.853 1433.864 237.473 L 1433.864 237.473 L 1433.864 231.092 L 1433.864 231.092 Q 1433.864 193.944 1448.222 164.659 L 1448.222 164.659 L 1448.222 164.659 Q 1462.58 135.373 1488.902 119.534 L 1488.902 119.534 L 1488.902 119.534 Q 1515.225 103.695 1548.954 103.695 L 1548.954 103.695 L 1548.954 103.695 Q 1599.548 103.695 1628.606 135.601 L 1628.606 135.601 L 1628.606 135.601 Q 1657.663 167.507 1657.663 226.078 L 1657.663 226.078 L 1657.663 252.97 L 1500.639 252.97 L 1500.639 252.97 Q 1503.83 277.128 1519.897 291.714 L 1519.897 291.714 L 1519.897 291.714 Q 1535.964 306.299 1560.577 306.299 L 1560.577 306.299 L 1560.577 306.299 Q 1598.637 306.299 1620.059 278.723 L 1620.059 278.723 L 1652.421 314.96 L 1652.421 314.96 Q 1637.608 335.927 1612.311 347.663 L 1612.311 347.663 L 1612.311 347.663 Q 1587.014 359.4 1556.247 359.4 Z  M 1548.726 157.024 L 1548.726 157.024 L 1548.726 157.024 Q 1529.127 157.024 1516.934 170.242 L 1516.934 170.242 L 1516.934 170.242 Q 1504.741 183.461 1501.323 208.074 L 1501.323 208.074 L 1592.939 208.074 L 1592.939 202.832 L 1592.939 202.832 Q 1592.483 180.954 1581.088 168.989 L 1581.088 168.989 L 1581.088 168.989 Q 1569.693 157.024 1548.726 157.024 Z " fill-rule="evenodd" fill="rgb(19,19,90)"/><path d=" M 2122.089 317 L 2122.091 317 L 2122.091 316.667 L 2122.091 316.667 L 2122.091 234.243 L 2176.634 234.243 L 2176.634 234.243 L 2176.634 234.243 L 2176.634 234.243 Q 2241.404 234.243 2278.537 203.198 L 2278.537 203.198 L 2278.537 203.198 Q 2315.67 172.152 2315.67 120.287 L 2315.67 120.287 L 2315.67 120.287 Q 2315.67 85.224 2298.504 57.587 L 2298.504 57.587 L 2298.504 57.587 Q 2281.337 29.95 2250.048 14.975 L 2250.048 14.975 L 2250.048 14.975 Q 2218.759 0 2178.095 0 L 2178.095 0 L 2036.624 0 L 2036.624 316.667 L 2036.624 316.667 L 2036.624 317 L 2036.625 317 C 2036.804 340.432 2055.883 359.4 2079.357 359.4 C 2102.831 359.4 2121.91 340.432 2122.089 317 Z  M 1983.298 0 L 1983.298 0.495 C 1983.298 12.926 1920.725 23.018 1843.653 23.018 C 1766.581 23.018 1704.008 12.926 1704.008 0.495 L 1704.008 0.495 L 1704.008 233.756 L 1704.008 233.756 Q 1704.738 292.195 1741.993 325.798 L 1741.993 325.798 L 1741.993 325.798 Q 1779.248 359.4 1844.018 359.4 L 1844.018 359.4 L 1844.018 359.4 Q 1886.873 359.4 1918.284 344.304 L 1918.284 344.304 L 1918.284 344.304 Q 1949.695 329.207 1966.497 300.353 L 1966.497 300.353 L 1966.497 300.353 Q 1983.298 271.498 1983.298 232.052 L 1983.298 232.052 L 1983.298 0 L 1983.298 0 Z  M 2122.091 65.987 L 2122.091 168.256 L 2178.095 168.256 L 2178.095 168.256 Q 2202.931 168.256 2215.959 155.838 L 2215.959 155.838 L 2215.959 155.838 Q 2228.986 143.419 2228.986 120.774 L 2228.986 120.774 L 2228.986 120.774 Q 2228.986 95.938 2215.593 81.084 L 2215.593 81.084 L 2215.593 81.084 Q 2202.201 66.231 2179.069 65.987 L 2179.069 65.987 L 2122.091 65.987 L 2122.091 65.987 L 2122.091 65.987 Z " fill-rule="evenodd" fill="rgb(81,229,152)"/><path d=" M 1877.88 159 C 1877.88 161.65 1876.83 164.2 1874.95 166.07 C 1873.08 167.95 1870.53 169 1867.88 169 C 1865.23 169 1862.68 167.95 1860.81 166.07 C 1858.94 164.2 1857.88 161.65 1857.88 159 C 1857.88 149.08 1861.82 139.56 1868.84 132.55 C 1875.85 125.54 1885.37 121.6 1895.28 121.6 C 1905.2 121.6 1914.72 125.54 1921.73 132.55 C 1928.75 139.56 1932.69 149.08 1932.69 159 C 1932.69 161.65 1931.63 164.2 1929.76 166.07 C 1927.88 167.95 1925.34 169 1922.69 169 C 1920.04 169 1917.49 167.95 1915.62 166.07 C 1913.74 164.2 1912.69 161.65 1912.69 159 C 1912.69 154.39 1910.85 149.96 1907.59 146.69 C 1904.33 143.43 1899.9 141.6 1895.28 141.6 C 1890.67 141.6 1886.24 143.43 1882.98 146.69 C 1879.72 149.96 1877.88 154.39 1877.88 159 Z " fill="rgb(255,255,255)"/><path d=" M 1889.998 233.634 C 1889.968 239.064 1888.548 244.394 1885.888 249.134 C 1884.598 251.434 1883.068 253.584 1881.308 255.554 C 1879.548 257.524 1877.588 259.334 1875.478 260.934 C 1871.118 264.204 1866.238 266.714 1861.038 268.354 C 1855.538 270.104 1849.788 270.994 1844.018 270.974 C 1838.238 270.994 1832.498 270.104 1826.998 268.354 C 1821.798 266.714 1816.918 264.204 1812.558 260.934 C 1810.438 259.334 1808.488 257.524 1806.718 255.554 C 1804.968 253.584 1803.428 251.434 1802.148 249.134 C 1799.478 244.394 1798.068 239.064 1798.038 233.634 C 1798.018 230.974 1799.068 228.414 1800.938 226.524 C 1802.818 224.634 1805.378 223.574 1808.038 223.574 L 1879.998 223.574 C 1882.658 223.574 1885.218 224.634 1887.088 226.524 C 1888.968 228.414 1890.018 230.974 1889.998 233.634 Z " fill="rgb(255,255,255)"/><path d=" M 1775.35 159 C 1775.35 161.65 1774.29 164.2 1772.42 166.07 C 1770.54 167.95 1768 169 1765.35 169 C 1762.7 169 1760.15 167.95 1758.28 166.07 C 1756.4 164.2 1755.35 161.65 1755.35 159 C 1755.35 149.08 1759.29 139.56 1766.3 132.55 C 1773.31 125.54 1782.84 121.6 1792.75 121.6 C 1802.67 121.6 1812.19 125.54 1819.2 132.55 C 1826.21 139.56 1830.16 149.08 1830.16 159 C 1830.16 161.65 1829.1 164.2 1827.23 166.07 C 1825.35 167.95 1822.81 169 1820.16 169 C 1817.5 169 1814.96 167.95 1813.08 166.07 C 1811.21 164.2 1810.16 161.65 1810.16 159 C 1810.16 154.39 1808.32 149.96 1805.06 146.69 C 1801.8 143.43 1797.37 141.6 1792.75 141.6 C 1788.14 141.6 1783.71 143.43 1780.45 146.69 C 1777.18 149.96 1775.35 154.39 1775.35 159 Z " fill="rgb(255,255,255)"/></g></svg>